<?xml version="1.0" standalone="no"?>
<!DOCTYPE svg PUBLIC "-//W3C//DTD SVG 20010904//EN"
 "http://www.w3.org/TR/2001/REC-SVG-20010904/DTD/svg10.dtd">
<svg version="1.0" xmlns="http://www.w3.org/2000/svg"
 width="365px" height="90px" viewBox="0 0 365.000000 90.000000"
 preserveAspectRatio="xMidYMid meet">

<g transform="translate(0.000000,90.000000) scale(0.100000,-0.100000)"
fill="#000000" stroke="none">
<path d="M65 891 c-11 -5 -29 -19 -40 -31 -19 -21 -20 -36 -20 -411 l0 -389
28 -27 27 -28 288 0 287 0 3 363 2 362 -40 0 -40 0 0 69 c0 110 21 101 -244
100 -127 0 -240 -4 -251 -8z m332 -98 c-64 -2 -170 -2 -235 0 -64 1 -11 3 118
3 129 0 182 -2 117 -3z m5 -50 c-62 -2 -161 -2 -220 0 -59 1 -8 3 113 3 121 0
169 -2 107 -3z m-64 -51 l262 -3 0 -324 0 -325 -260 0 c-247 0 -261 1 -280 20
-19 19 -20 33 -20 336 0 298 1 316 18 308 9 -5 135 -10 280 -12z"/>
<path d="M417 643 c-4 -3 -7 -84 -7 -179 0 -147 2 -173 16 -178 27 -10 110 -6
122 6 17 17 17 329 0 346 -13 13 -120 17 -131 5z"/>
<path d="M85 617 c-3 -7 -4 -125 -3 -262 3 -214 5 -250 18 -250 13 0 15 37 18
263 2 231 0 262 -13 262 -9 0 -18 -6 -20 -13z"/>
<path d="M664 567 c-2 -7 -3 -62 -2 -123 3 -125 2 -123 93 -104 38 8 55 16 55
27 0 10 -6 13 -17 9 -9 -4 -36 -10 -60 -13 l-43 -6 0 112 c0 69 -4 111 -10
111 -6 0 -13 -6 -16 -13z"/>
<path d="M837 574 c-11 -12 3 -24 29 -24 24 0 24 -1 24 -94 0 -92 -1 -94 -25
-100 -48 -12 -25 -26 45 -26 56 0 70 3 70 15 0 10 -10 15 -30 15 l-30 0 0 95
0 95 35 0 c43 0 46 15 4 24 -41 8 -114 8 -122 0z"/>
<path d="M1063 572 c-7 -5 -13 -49 -15 -127 l-3 -120 49 2 c83 3 128 53 88 96
-18 20 -19 24 -6 41 21 30 17 54 -15 87 -29 29 -72 38 -98 21z m83 -43 c17
-19 17 -23 3 -47 -10 -19 -24 -28 -48 -30 -31 -3 -33 -2 -27 20 3 13 6 35 6
51 0 22 5 27 23 27 13 0 32 -9 43 -21z m10 -124 c19 -15 19 -15 -5 -35 -13
-11 -36 -20 -52 -20 -26 0 -29 3 -29 35 0 33 2 35 33 35 18 0 42 -7 53 -15z"/>
<path d="M1248 568 c-2 -7 -3 -62 -3 -122 0 -78 4 -110 13 -113 8 -3 12 8 12
36 l0 41 43 -21 c23 -12 52 -30 64 -41 23 -21 46 -17 37 7 -3 8 -22 24 -41 36
l-34 21 30 19 c60 37 32 116 -50 139 -45 13 -66 13 -71 -2z m96 -39 c48 -38
25 -88 -41 -89 l-32 0 2 55 c2 49 4 55 23 55 12 0 33 -9 48 -21z"/>
<path d="M1568 563 c-8 -10 -28 -40 -43 -68 -16 -27 -35 -58 -43 -67 -8 -10
-12 -18 -8 -18 3 0 -1 -14 -9 -30 -15 -29 -13 -50 5 -50 4 0 15 18 24 40 9 22
22 40 30 40 7 0 28 3 45 6 27 6 31 4 31 -14 0 -30 22 -73 34 -69 6 3 10 10 8
18 -2 7 -13 58 -24 113 -12 56 -24 104 -28 109 -4 4 -13 -1 -22 -10z m19 -109
c-8 -5 -57 -13 -57 -10 0 3 10 22 22 42 l22 38 7 -34 c4 -19 7 -35 6 -36z"/>
<path d="M1708 568 c-2 -7 -3 -62 -3 -122 0 -78 4 -110 13 -113 8 -3 12 8 12
36 l0 41 43 -21 c23 -12 52 -30 64 -41 23 -21 46 -17 37 7 -3 8 -22 24 -41 36
l-34 21 30 19 c60 37 32 116 -50 139 -45 13 -66 13 -71 -2z m96 -39 c48 -38
25 -88 -41 -89 l-32 0 2 55 c2 49 4 55 23 55 12 0 33 -9 48 -21z"/>
<path d="M2303 565 c-78 -33 -57 -105 31 -105 26 0 56 -28 56 -53 0 -40 -86
-62 -121 -31 -10 9 -22 13 -28 10 -19 -12 1 -36 39 -47 70 -21 140 20 140 82
0 35 -30 60 -80 66 -48 7 -63 29 -34 50 13 10 33 13 62 9 47 -6 57 9 16 24
-33 13 -42 12 -81 -5z"/>
<path d="M2753 565 c-78 -33 -57 -105 31 -105 26 0 56 -28 56 -53 0 -40 -86
-62 -121 -31 -10 9 -22 13 -28 10 -19 -12 1 -36 39 -47 70 -21 140 20 140 82
0 35 -30 60 -80 66 -48 7 -63 29 -34 50 13 10 33 13 62 9 47 -6 57 9 16 24
-33 13 -42 12 -81 -5z"/>
<path d="M2920 571 c0 -11 25 -21 56 -21 13 0 25 -1 25 -2 1 -2 4 -50 8 -107
4 -76 10 -106 20 -109 12 -4 13 14 9 107 l-6 111 49 0 c51 0 66 13 27 24 -36
9 -188 7 -188 -3z"/>
<path d="M3158 510 c-3 -160 -2 -172 18 -187 24 -17 125 -14 132 5 3 9 -13 12
-56 12 -66 0 -72 6 -72 65 0 28 4 33 31 39 17 3 47 6 65 6 24 0 34 5 34 15 0
14 -10 15 -60 9 l-60 -7 0 42 0 41 65 0 c36 0 65 4 65 9 0 15 -33 22 -99 19
l-61 -2 -2 -66z"/>
<path d="M3410 558 c-13 -30 -50 -194 -50 -220 0 -42 26 -9 41 53 8 35 18 71
21 79 2 8 13 -21 24 -65 26 -104 41 -105 73 -2 14 42 27 77 31 77 3 0 12 -35
20 -77 11 -56 19 -78 30 -78 8 0 14 7 13 15 -4 30 -34 186 -41 209 -9 30 -29
38 -35 14 -54 -193 -57 -196 -77 -83 -14 84 -19 100 -31 100 -5 0 -14 -10 -19
-22z"/>
<path d="M1900 559 c0 -7 20 -44 43 -84 l44 -72 -18 -34 c-16 -33 -17 -49 0
-49 17 0 123 237 110 246 -13 8 -13 9 -48 -65 l-29 -63 -42 66 c-39 62 -60 81
-60 55z"/>
<path d="M2460 559 c0 -7 20 -44 43 -84 l44 -72 -18 -34 c-16 -33 -17 -49 0
-49 17 0 123 237 110 246 -13 8 -13 9 -48 -65 l-29 -63 -42 66 c-39 62 -60 81
-60 55z"/>
</g>
</svg>
